<svg width="72" height="72" viewBox="0 0 72 72" fill="none" xmlns="http://www.w3.org/2000/svg">
<rect width="72" height="72" rx="36" fill="white"/>
<g clip-path="url(#clip0_203_4243)">
<path d="M36 24C42.628 24 48 29.3731 48 36C48 42.628 42.628 48 36 48C29.3731 48 24 42.6275 24 36C24 29.3731 29.3731 24 36 24Z" fill="url(#paint0_linear_203_4243)"/>
<path d="M36.5923 36.5222H40.5781C40.6631 36.5222 40.7032 36.5222 40.7093 36.4116C40.7419 36.0094 40.7419 35.6048 40.7093 35.2021C40.7093 35.1239 40.6702 35.0916 40.5847 35.0916H32.6523C32.5542 35.0916 32.5277 35.1239 32.5277 35.2152V36.3728C32.5277 36.5222 32.5277 36.5222 32.6849 36.5222H36.5923ZM40.2642 33.7387C40.2756 33.7092 40.2756 33.6769 40.2642 33.6479C40.1977 33.5041 40.1188 33.3669 40.0273 33.2381C39.8894 33.018 39.7271 32.8153 39.542 32.6331C39.4547 32.5231 39.3537 32.4243 39.2404 32.3404C38.673 31.8614 37.9985 31.5224 37.2735 31.3519C36.9076 31.2704 36.5338 31.2316 36.159 31.2348H32.6386C32.5405 31.2348 32.5273 31.2737 32.5273 31.3585V33.6671C32.5273 33.7645 32.5273 33.7907 32.6519 33.7907H40.217C40.217 33.7907 40.2826 33.7776 40.2958 33.7387H40.2638H40.2642ZM40.2642 37.875C40.1528 37.8628 40.0405 37.8628 39.9291 37.875H32.6589C32.5608 37.875 32.5277 37.875 32.5277 38.0052V40.2623C32.5277 40.3662 32.5277 40.3925 32.6589 40.3925H36.0155C36.176 40.4046 36.3365 40.3934 36.4937 40.3602C36.9808 40.3255 37.4599 40.2206 37.9168 40.0478C38.083 39.9907 38.2435 39.9162 38.395 39.8268H38.4408C39.2277 39.4208 39.8668 38.783 40.2699 38C40.2699 38 40.3157 37.9017 40.2642 37.8759V37.875ZM31.2103 41.5627V41.5238V40.0085V39.4948V37.9663C31.2103 37.8816 31.2103 37.8689 31.1055 37.8689H29.6828C29.604 37.8689 29.5714 37.8689 29.5714 37.765V36.5292H31.0923C31.1773 36.5292 31.2103 36.5292 31.2103 36.4187V35.196C31.2103 35.1178 31.2103 35.0986 31.1055 35.0986H29.6828C29.604 35.0986 29.5714 35.0986 29.5714 34.9946V33.8502C29.5714 33.7785 29.5714 33.7593 29.6762 33.7593H31.0857C31.1839 33.7593 31.2103 33.7593 31.2103 33.6357V30.1302C31.2103 30.0262 31.2103 30 31.3415 30H36.2581C36.615 30.014 36.9695 30.0529 37.3202 30.1171C38.0429 30.2496 38.7372 30.5057 39.3721 30.8715C39.7931 31.1173 40.1807 31.4142 40.5257 31.756C40.7853 32.0234 41.0195 32.3128 41.2272 32.6209C41.4334 32.9333 41.6048 33.2672 41.7393 33.616C41.7558 33.7069 41.8436 33.7682 41.9352 33.7528H43.1087C43.2592 33.7528 43.2592 33.7528 43.2658 33.8961V34.9628C43.2658 35.0668 43.2267 35.093 43.1214 35.093H42.2165C42.125 35.093 42.0985 35.093 42.1051 35.21C42.141 35.6062 42.141 36.0038 42.1051 36.3999C42.1051 36.5105 42.1051 36.5236 42.2302 36.5236H43.2654C43.3111 36.5821 43.2654 36.6406 43.2654 36.6996C43.272 36.775 43.272 36.8514 43.2654 36.9268V37.7139C43.2654 37.8244 43.2328 37.8572 43.1341 37.8572H41.8951C41.8087 37.8408 41.7247 37.8956 41.7048 37.9808C41.4098 38.7418 40.9378 39.4241 40.3279 39.971C40.1052 40.17 39.871 40.3573 39.6265 40.5301C39.3641 40.68 39.1087 40.8359 38.8397 40.9596C38.3445 41.1806 37.8253 41.3435 37.2924 41.447C36.7863 41.5369 36.2732 41.5777 35.7583 41.5707H31.2084V41.5641L31.2103 41.5627Z" fill="#FEFEFD"/>
</g>
<path d="M16.1547 38.5C16.0526 37.681 16 36.8467 16 36C16 24.9543 24.9543 16 36 16C42.2514 16 47.833 18.8682 51.5005 23.3604M55.8453 33.5C55.9474 34.319 56 35.1533 56 36C56 47.0457 47.0457 56 36 56C30.0265 56 24.6647 53.3812 21 49.2291M25.5 48.5H21V49.2291M51.5005 19V23.3604M51.5005 23.3604V23.4998H47M21 54V49.2291" stroke="#697486" stroke-width="2" stroke-linecap="round" stroke-linejoin="round"/>
<defs>
<linearGradient id="paint0_linear_203_4243" x1="36" y1="24" x2="36" y2="48" gradientUnits="userSpaceOnUse">
<stop stop-color="#F5AC37"/>
<stop offset="1" stop-color="#FBC854"/>
</linearGradient>
<clipPath id="clip0_203_4243">
<rect width="24" height="24" fill="white" transform="translate(24 24)"/>
</clipPath>
</defs>
</svg>
