<svg width="72" height="72" viewBox="0 0 72 72" fill="none" xmlns="http://www.w3.org/2000/svg">
<rect width="72" height="72" rx="36" fill="white"/>
<g clip-path="url(#clip0_203_4220)">
<path d="M36 20C44.8374 20 52 27.1641 52 36C52 44.8374 44.8374 52 36 52C27.1641 52 20 44.8366 20 36C20 27.1641 27.1641 20 36 20Z" fill="url(#paint0_linear_203_4220)"/>
<g clip-path="url(#clip1_203_4220)">
<path d="M43.1783 30.4716L41.6938 31.7786V37.1411H34.6139C34.4372 37.141 34.2669 37.2078 34.1374 37.3281L28.254 42.7856C28.1505 42.8814 28.0784 43.0063 28.047 43.1437C28.0156 43.2812 28.0264 43.4249 28.0779 43.5562C28.1295 43.6875 28.2193 43.8002 28.3359 43.8796C28.4524 43.959 28.5902 44.0014 28.7312 44.0013H36.5986C36.7757 44.0014 36.9463 43.9343 37.0758 43.8135L42.9586 38.3568C43.0298 38.2905 43.0864 38.21 43.1247 38.1206C43.1631 38.0311 43.1823 37.9346 43.1812 37.8373L43.1783 30.4716ZM36.3188 42.5985H30.5155L34.8871 38.5439H40.6904L36.3188 42.5985Z" fill="white"/>
<path d="M42.8532 29.4459C42.8018 29.3145 42.7119 29.2018 42.5954 29.1223C42.4789 29.0429 42.3411 29.0004 42.2 29.0005H34.3326C34.1557 29.0005 33.9852 29.0673 33.8554 29.1876L27.9727 34.645C27.9014 34.7114 27.8448 34.7918 27.8065 34.8813C27.7682 34.9708 27.7489 35.0673 27.75 35.1646V42.5302L29.2344 41.224V35.8615H36.3143C36.4911 35.8616 36.6613 35.7948 36.7908 35.6745L42.6743 30.217C42.7783 30.1214 42.851 29.9967 42.8829 29.8591C42.9149 29.7215 42.9045 29.5775 42.8532 29.4459ZM36.0419 34.458H30.2423L34.6132 30.4033H40.4106L36.0419 34.458Z" fill="white"/>
</g>
</g>
<defs>
<linearGradient id="paint0_linear_203_4220" x1="36" y1="20" x2="36" y2="52" gradientUnits="userSpaceOnUse">
<stop stop-color="#4FA89B"/>
<stop offset="1" stop-color="#6ACEBB"/>
</linearGradient>
<clipPath id="clip0_203_4220">
<rect width="32" height="32" fill="white" transform="translate(20 20)"/>
</clipPath>
<clipPath id="clip1_203_4220">
<rect width="15.4283" height="15" fill="white" transform="translate(27.75 29)"/>
</clipPath>
</defs>
</svg>
