<svg width="72" height="72" viewBox="0 0 72 72" fill="none" xmlns="http://www.w3.org/2000/svg">
<g clip-path="url(#clip0_203_4325)">
<circle cx="36" cy="36" r="36" fill="white"/>
<path d="M41.5 29C41.5 22.0969 35.9042 16.5 29 16.5C22.0969 16.5 16.5 22.0969 16.5 29C16.5 35.9036 22.0969 41.5 29 41.5C35.9042 41.5 41.5 35.9042 41.5 29Z" fill="url(#paint0_linear_203_4325)" stroke="white"/>
<path d="M29.5923 29.5222H33.5781C33.6631 29.5222 33.7032 29.5222 33.7093 29.4116C33.7419 29.0094 33.7419 28.6048 33.7093 28.2021C33.7093 28.1239 33.6701 28.0916 33.5847 28.0916H25.6523C25.5541 28.0916 25.5277 28.1239 25.5277 28.2152V29.3728C25.5277 29.5222 25.5277 29.5222 25.6849 29.5222H29.5923V29.5222ZM33.2642 26.7387C33.2755 26.7092 33.2755 26.6769 33.2642 26.6479C33.1977 26.5041 33.1188 26.3669 33.0273 26.2381C32.8894 26.018 32.727 25.8153 32.542 25.6331C32.4547 25.5231 32.3537 25.4243 32.2404 25.3404C31.673 24.8614 30.9985 24.5224 30.2735 24.3519C29.9076 24.2704 29.5338 24.2316 29.159 24.2348H25.6386C25.5405 24.2348 25.5272 24.2737 25.5272 24.3585V26.6671C25.5272 26.7645 25.5272 26.7907 25.6519 26.7907H33.217C33.217 26.7907 33.2826 26.7776 33.2958 26.7387H33.2637H33.2642ZM33.2642 30.875C33.1528 30.8628 33.0405 30.8628 32.9291 30.875H25.6589C25.5607 30.875 25.5277 30.875 25.5277 31.0052V33.2623C25.5277 33.3662 25.5277 33.3925 25.6589 33.3925H29.0155C29.176 33.4046 29.3365 33.3934 29.4937 33.3602C29.9808 33.3255 30.4599 33.2206 30.9168 33.0478C31.083 32.9907 31.2435 32.9162 31.395 32.8268H31.4408C32.2276 32.4208 32.8668 31.783 33.2699 31C33.2699 31 33.3157 30.9017 33.2642 30.8759V30.875ZM24.2103 34.5627V34.5238V33.0085V32.4948V30.9663C24.2103 30.8816 24.2103 30.8689 24.1055 30.8689H22.6828C22.604 30.8689 22.5714 30.8689 22.5714 30.765V29.5292H24.0923C24.1772 29.5292 24.2103 29.5292 24.2103 29.4187V28.196C24.2103 28.1178 24.2103 28.0986 24.1055 28.0986H22.6828C22.604 28.0986 22.5714 28.0986 22.5714 27.9946V26.8502C22.5714 26.7785 22.5714 26.7593 22.6762 26.7593H24.0857C24.1839 26.7593 24.2103 26.7593 24.2103 26.6357V23.1302C24.2103 23.0262 24.2103 23 24.3415 23H29.2581C29.615 23.014 29.9695 23.0529 30.3202 23.1171C31.0429 23.2496 31.7372 23.5057 32.3721 23.8715C32.7931 24.1173 33.1807 24.4142 33.5257 24.756C33.7853 25.0234 34.0194 25.3128 34.2271 25.6209C34.4334 25.9333 34.6048 26.2672 34.7393 26.616C34.7558 26.7069 34.8436 26.7682 34.9352 26.7528H36.1086C36.2592 26.7528 36.2592 26.7528 36.2658 26.8961V27.9628C36.2658 28.0668 36.2266 28.093 36.1214 28.093H35.2165C35.1249 28.093 35.0985 28.093 35.1051 28.21C35.141 28.6062 35.141 29.0038 35.1051 29.3999C35.1051 29.5105 35.1051 29.5236 35.2302 29.5236H36.2653C36.3111 29.5821 36.2653 29.6406 36.2653 29.6996C36.272 29.775 36.272 29.8514 36.2653 29.9268V30.7139C36.2653 30.8244 36.2328 30.8572 36.1341 30.8572H34.8951C34.8087 30.8408 34.7247 30.8956 34.7048 30.9808C34.4098 31.7418 33.9378 32.4241 33.3279 32.971C33.1051 33.17 32.871 33.3573 32.6265 33.5301C32.3641 33.68 32.1087 33.8359 31.8396 33.9596C31.3445 34.1806 30.8253 34.3435 30.2923 34.447C29.7863 34.5369 29.2732 34.5777 28.7583 34.5707H24.2084V34.5641L24.2103 34.5627Z" fill="#FEFEFD"/>
<path d="M43 55.5C49.9262 55.5 55.5 49.9262 55.5 43C55.5 36.0738 49.9262 30.5 43 30.5C36.0738 30.5 30.5 36.0738 30.5 43C30.5 49.9262 36.0738 55.5 43 55.5Z" fill="#2775CA" stroke="white"/>
<path d="M46.3001 44.9C46.3001 43.15 45.2501 42.55 43.1501 42.3001C41.6501 42.1 41.3501 41.7001 41.3501 41C41.3501 40.2999 41.8501 39.85 42.8501 39.85C43.7501 39.85 44.2501 40.15 44.5001 40.9C44.5501 41.05 44.7001 41.15 44.8501 41.15H45.65C45.8501 41.15 46.0001 41 46.0001 40.8001V40.75C45.8 39.65 44.9 38.8 43.7501 38.7001V37.5001C43.7501 37.3 43.6001 37.15 43.3501 37.1H42.6001C42.4001 37.1 42.2501 37.25 42.2 37.5001V38.65C40.7 38.8501 39.7501 39.85 39.7501 41.1001C39.7501 42.7501 40.7501 43.4 42.8501 43.6501C44.2501 43.9 44.7001 44.2 44.7001 45.0001C44.7001 45.8001 44 46.3501 43.0501 46.3501C41.75 46.3501 41.3 45.8 41.15 45.05C41.1001 44.8501 40.9501 44.75 40.8001 44.75H39.95C39.7501 44.75 39.6001 44.9 39.6001 45.1V45.1501C39.8 46.4 40.6001 47.3 42.2501 47.5501V48.7501C42.2501 48.95 42.4001 49.1 42.65 49.15H43.4C43.6001 49.15 43.7501 49 43.8001 48.7501V47.5501C45.3001 47.3 46.3001 46.25 46.3001 44.9V44.9Z" fill="white"/>
<path d="M40.4503 50.1498C36.5502 48.7499 34.5502 44.3999 36.0003 40.5498C36.7503 38.4498 38.4003 36.8498 40.4503 36.0998C40.6503 35.9999 40.7503 35.8499 40.7503 35.5998V34.8998C40.7503 34.6998 40.6503 34.5498 40.4503 34.4999C40.4002 34.4999 40.3003 34.4999 40.2502 34.5498C35.5002 36.0498 32.9002 41.0999 34.4002 45.8498C35.3002 48.6498 37.4503 50.7998 40.2502 51.6998C40.4503 51.7998 40.6503 51.6998 40.7002 51.4998C40.7503 51.4499 40.7503 51.3998 40.7503 51.2999V50.5998C40.7503 50.4498 40.6003 50.2499 40.4503 50.1498ZM45.7503 34.5498C45.5503 34.4498 45.3502 34.5498 45.3003 34.7498C45.2503 34.7999 45.2503 34.8498 45.2503 34.9499V35.6498C45.2503 35.8499 45.4003 36.0498 45.5503 36.1499C49.4503 37.5498 51.4503 41.8998 50.0002 45.7499C49.2502 47.8499 47.6002 49.4498 45.5503 50.1998C45.3502 50.2998 45.2503 50.4498 45.2503 50.6999V51.3998C45.2503 51.5999 45.3502 51.7499 45.5503 51.7998C45.6003 51.7998 45.7003 51.7998 45.7503 51.7499C50.5003 50.2499 53.1003 45.1998 51.6003 40.4498C50.7003 37.5998 48.5002 35.4498 45.7503 34.5498V34.5498Z" fill="white"/>
</g>
<defs>
<linearGradient id="paint0_linear_203_4325" x1="29" y1="17" x2="29" y2="41" gradientUnits="userSpaceOnUse">
<stop stop-color="#F5AC37"/>
<stop offset="1" stop-color="#FBC854"/>
</linearGradient>
<clipPath id="clip0_203_4325">
<rect width="72" height="72" fill="white"/>
</clipPath>
</defs>
</svg>
